<svg width="24" height="25" viewBox="0 0 24 25" fill="none" xmlns="http://www.w3.org/2000/svg">
<path d="M20 14.9782C20 19.3009 16.3812 22.6611 12 22.6611C7.64611 22.6611 4 19.4721 4 15.1238C4 14.164 4.10438 12.6704 4.85846 11.4865C5.52403 10.4417 5.9506 10.104 6.62592 9.37361C7.02517 8.94179 7.18208 8.79059 7.34467 8.58614C7.48677 8.40743 7.63034 8.18716 7.91452 7.67083C8.14364 7.25469 8.36883 6.56968 8.53585 5.77896C8.70037 4.99996 8.7932 4.19439 8.7932 3.57014C8.7932 3.21898 9.00241 2.89942 9.33088 2.74894C9.65942 2.59848 10.0485 2.64385 10.33 2.86613C11.1455 3.51009 12.7193 4.59224 13.955 6.19888L14.1976 6.52736L14.4403 6.89136C14.9898 7.76519 15.4309 8.79888 15.7408 9.64883C15.7861 9.77319 15.8254 9.89591 15.8658 10.0137C16.0781 9.66862 16.2569 9.2263 16.3272 8.65717L16.3566 8.51423C16.4521 8.1918 16.727 7.94127 17.0754 7.87325C17.4735 7.79562 17.8789 7.97355 18.08 8.31448C18.3615 8.79201 18.5541 9.12236 18.7417 9.53785C18.9258 9.9454 19.0984 10.4219 19.3658 11.198C19.9433 12.8745 20 13.9792 20 14.9782Z" fill="#B0ABB3"/>
<path d="M16.9998 17.6612C16.9998 20.4226 14.7612 22.6612 11.9998 22.6612C9.2384 22.6612 7.13477 20.6611 7.13477 18.1611C7.13477 16.3104 8.21174 14.9048 9.49981 14.1611C10.8602 13.3757 11.4803 12.2048 11.763 11.7564C11.9216 11.5048 12.3125 11.3186 12.5723 11.4632C15.2516 12.9546 16.9998 15.0794 16.9998 17.6612Z" fill="#EAE6ED"/>
</svg>
