<svg width="40" height="40" viewBox="0 0 40 40" fill="none" xmlns="http://www.w3.org/2000/svg">
<rect width="40" height="40" rx="20" fill="#F6EAFF"/>
<path fill-rule="evenodd" clip-rule="evenodd" d="M15.45 10C14.0969 10 13 11.1193 13 12.5V27.5C13 28.3456 13.5058 28.9737 13.91 29.3254C14.1286 29.5156 14.3693 29.6727 14.6069 29.7864C14.8231 29.8899 15.1249 30 15.45 30H24.55C25.9031 30 27 28.8807 27 27.5V12.5C27 11.1193 25.9031 10 24.55 10H15.45ZM19.3 23.9286C18.7201 23.9286 18.25 24.4083 18.25 25C18.25 25.5917 18.7201 26.0714 19.3 26.0714H20.7C21.2799 26.0714 21.75 25.5917 21.75 25C21.75 24.4083 21.2799 23.9286 20.7 23.9286H19.3Z" fill="#B961FF"/>
</svg>
