<svg width="21" height="20" viewBox="0 0 21 20" fill="none" xmlns="http://www.w3.org/2000/svg">
<path fill-rule="evenodd" clip-rule="evenodd" d="M6.34042 3.38989C7.44357 2.28674 8.93978 1.66699 10.4999 1.66699C12.06 1.66699 13.5562 2.28674 14.6594 3.38989C15.7625 4.49304 16.3822 5.98925 16.3822 7.54935V12.1245C16.3822 12.4712 16.52 12.8037 16.7651 13.0488C17.0102 13.2939 17.3427 13.4317 17.6894 13.4317C18.0503 13.4317 18.343 13.7244 18.343 14.0853C18.343 14.4462 18.0503 14.7389 17.6894 14.7389H3.31033C2.94937 14.7389 2.65674 14.4462 2.65674 14.0853C2.65674 13.7244 2.94937 13.4317 3.31033 13.4317C3.65703 13.4317 3.98951 13.2939 4.23466 13.0488C4.4798 12.8037 4.61752 12.4712 4.61752 12.1245V7.54935C4.61752 5.98925 5.23727 4.49304 6.34042 3.38989ZM8.21229 17.3533C8.21229 16.8118 8.65123 16.3729 9.19269 16.3729H11.8071C12.3485 16.3729 12.7875 16.8118 12.7875 17.3533C12.7875 17.8947 12.3485 18.3337 11.8071 18.3337H9.19269C8.65123 18.3337 8.21229 17.8947 8.21229 17.3533Z" fill="#B961FF"/>
</svg>
