<svg width="20" height="20" viewBox="0 0 20 20" fill="none" xmlns="http://www.w3.org/2000/svg">
<path fill-rule="evenodd" clip-rule="evenodd" d="M9.06775 1.92922C9.34843 1.75773 9.67101 1.66699 9.99996 1.66699C10.3289 1.66699 10.6515 1.75773 10.9322 1.92922C11.2128 2.1007 11.4407 2.34628 11.5907 2.63891L11.5934 2.6441L18.1461 15.7433C18.2829 16.0149 18.3485 16.318 18.3358 16.622C18.323 16.9263 18.2327 17.2222 18.0733 17.4818C17.9138 17.7413 17.6908 17.9558 17.4251 18.1049C17.1595 18.254 16.86 18.3327 16.5553 18.3337H16.5535H3.44635H3.44454C3.13986 18.3327 2.84047 18.254 2.57481 18.1049C2.30915 17.9558 2.08604 17.7413 1.92666 17.4818C1.76727 17.2222 1.67692 16.9263 1.66416 16.622C1.65143 16.318 1.71654 16.0159 1.85332 15.7442L8.40658 2.64411L8.40919 2.63889C8.55917 2.34626 8.78709 2.1007 9.06775 1.92922ZM9.99993 6.57282C10.4935 6.57282 10.8936 6.97274 10.8936 7.46606V11.3368C10.8936 11.8301 10.4935 12.23 9.99993 12.23C9.50637 12.23 9.10625 11.8301 9.10625 11.3368V7.46606C9.10625 6.97274 9.50637 6.57282 9.99993 6.57282ZM11.1915 14.612C11.1915 15.2697 10.658 15.8029 9.99993 15.8029C9.34185 15.8029 8.80836 15.2697 8.80836 14.612C8.80836 13.9542 9.34185 13.421 9.99993 13.421C10.658 13.421 11.1915 13.9542 11.1915 14.612Z" fill="#FF2133"/>
</svg>
