<svg width="16" height="16" viewBox="0 0 16 16" fill="none" xmlns="http://www.w3.org/2000/svg">
<path d="M11.5371 1.33301C11.3469 1.33301 11.1585 1.37102 10.9831 1.44482C10.8089 1.51816 10.6509 1.62538 10.5184 1.76023L2.67408 9.56644C2.61584 9.62439 2.57359 9.69643 2.55144 9.77554L1.35163 14.0606C1.30525 14.2262 1.35182 14.404 1.47345 14.5257C1.59507 14.6473 1.77285 14.6938 1.93849 14.6475L6.22353 13.4476C6.30264 13.4255 6.37467 13.3832 6.43263 13.325L14.2387 5.48081L14.24 5.47952C14.3733 5.347 14.479 5.18948 14.5513 5.01598C14.6239 4.84194 14.6612 4.65524 14.6612 4.46668C14.6612 4.27812 14.6239 4.09143 14.5513 3.91737C14.479 3.74387 14.3733 3.58634 14.24 3.45383L14.2387 3.45256L12.5569 1.76122C12.4242 1.6259 12.2659 1.51834 12.0911 1.44482C11.9157 1.37102 11.7274 1.33301 11.5371 1.33301Z" fill="#B0ABB3"/>
</svg>
