<svg width="740" height="250" viewBox="0 0 740 250" fill="none" xmlns="http://www.w3.org/2000/svg">
<path d="M7.72408 75.7469C3.87441 62.9147 13.4834 50 26.8806 50H150C161.046 50 170 58.9543 170 70V230C170 241.046 161.046 250 150 250H26.8806C13.4834 250 3.87442 237.085 7.72409 224.253L28.2759 155.747C29.4005 151.998 29.4005 148.002 28.2759 144.253L7.72408 75.7469Z" fill="url(#paint0_linear_2619_10026)"/>
<path d="M732.276 75.7469C736.126 62.9147 726.517 50 713.119 50H590C578.954 50 570 58.9543 570 70V230C570 241.046 578.954 250 590 250H713.119C726.517 250 736.126 237.085 732.276 224.253L711.724 155.747C710.599 151.998 710.599 148.002 711.724 144.253L732.276 75.7469Z" fill="url(#paint1_linear_2619_10026)"/>
<rect x="55" width="630" height="210" rx="20" fill="url(#paint2_linear_2619_10026)"/>
<defs>
<linearGradient id="paint0_linear_2619_10026" x1="0" y1="150" x2="170" y2="150" gradientUnits="userSpaceOnUse">
<stop stop-color="#B961FF"/>
<stop offset="1" stop-color="#8308D2"/>
</linearGradient>
<linearGradient id="paint1_linear_2619_10026" x1="740" y1="150" x2="570" y2="150" gradientUnits="userSpaceOnUse">
<stop stop-color="#8308D2"/>
<stop offset="1" stop-color="#8308D2"/>
</linearGradient>
<linearGradient id="paint2_linear_2619_10026" x1="55" y1="105" x2="685" y2="105" gradientUnits="userSpaceOnUse">
<stop stop-color="#B961FF"/>
<stop offset="1" stop-color="#9A2EE5"/>
</linearGradient>
</defs>
</svg>
