<svg width="33" height="32" viewBox="0 0 33 32" fill="none" xmlns="http://www.w3.org/2000/svg">
<path fill-rule="evenodd" clip-rule="evenodd" d="M8.0715 4.57129H9.02388V5.52367C9.02388 7.8906 10.9427 9.80938 13.3096 9.80938H19.0239C21.3908 9.80938 23.3096 7.8906 23.3096 5.52367V4.57129H24.262C25.8399 4.57129 27.1191 5.85047 27.1191 7.42843V26.476C27.1191 28.054 25.8399 29.3332 24.262 29.3332H8.0715C6.49354 29.3332 5.21436 28.054 5.21436 26.476V7.42843C5.21436 5.85047 6.49354 4.57129 8.0715 4.57129Z" fill="#DFB8FF"/>
<path d="M11.405 4.57175C11.405 3.51978 12.2578 2.66699 13.3098 2.66699H19.0241C20.0761 2.66699 20.9288 3.51978 20.9288 4.57175V5.52413C20.9288 6.57612 20.0761 7.4289 19.0241 7.4289H13.3098C12.2578 7.4289 11.405 6.57612 11.405 5.52413V4.57175Z" fill="#B961FF"/>
</svg>
