<svg width="25" height="24" viewBox="0 0 25 24" fill="none" xmlns="http://www.w3.org/2000/svg">
<path d="M20.5508 14.3171C20.5508 18.6398 16.932 22 12.5508 22C8.19689 22 4.55078 18.8109 4.55078 14.4627C4.55078 13.5028 4.65516 12.0093 5.40924 10.8254C6.07481 9.78056 6.50138 9.44289 7.1767 8.71248C7.57595 8.28066 7.73286 8.12945 7.89545 7.92501C8.03755 7.7463 8.18112 7.52603 8.4653 7.0097C8.69442 6.59356 8.91961 5.90855 9.08663 5.11782C9.25116 4.33883 9.34398 3.53326 9.34398 2.90901C9.34398 2.55785 9.55319 2.23828 9.88166 2.0878C10.2102 1.93735 10.5992 1.98271 10.8807 2.20499C11.6963 2.84896 13.2701 3.93111 14.5057 5.53775L14.7484 5.86623L14.991 6.23022C15.5406 7.10405 15.9817 8.13775 16.2916 8.98769C16.3369 9.11205 16.3762 9.23478 16.4166 9.35257C16.6289 9.00749 16.8077 8.56517 16.878 7.99603L16.9074 7.8531C17.0029 7.53066 17.2778 7.28014 17.6261 7.21212C18.0243 7.13449 18.4297 7.31242 18.6307 7.65335C18.9123 8.13088 19.1049 8.46123 19.2925 8.87672C19.4766 9.28426 19.6492 9.76075 19.9166 10.5369C20.4941 12.2133 20.5508 13.3181 20.5508 14.3171Z" fill="url(#paint0_radial_1588_814)"/>
<path d="M17.5508 16.9996C17.5508 19.761 15.3123 21.9996 12.5508 21.9996C9.78942 21.9996 7.68579 19.9995 7.68579 17.4995C7.68579 15.6488 8.76277 14.2432 10.0508 13.4995C11.4112 12.7141 12.0314 11.5432 12.314 11.0948C12.4726 10.8432 12.8635 10.657 13.1234 10.8016C15.8026 12.293 17.5508 14.4178 17.5508 16.9996Z" fill="url(#paint1_radial_1588_814)"/>
<defs>
<radialGradient id="paint0_radial_1588_814" cx="0" cy="0" r="1" gradientUnits="userSpaceOnUse" gradientTransform="translate(12.5508 9.5) rotate(90) scale(16 12.8)">
<stop offset="0.2103" stop-color="#B961FF"/>
<stop offset="1" stop-color="#8308D2"/>
</radialGradient>
<radialGradient id="paint1_radial_1588_814" cx="0" cy="0" r="1" gradientUnits="userSpaceOnUse" gradientTransform="translate(12.5491 16.3753) rotate(90) scale(10.6242 9.44497)">
<stop stop-color="white"/>
<stop offset="1" stop-color="#DFB8FF"/>
</radialGradient>
</defs>
</svg>
