<svg width="33" height="32" viewBox="0 0 33 32" fill="none" xmlns="http://www.w3.org/2000/svg">
<path fill-rule="evenodd" clip-rule="evenodd" d="M23.758 9.55571C24.1088 9.40809 24.4856 9.33203 24.8662 9.33203C25.2467 9.33203 25.6235 9.40809 25.9743 9.55571C26.3239 9.70283 26.6406 9.91807 26.9062 10.1889L26.909 10.1917L29.3208 12.6225C29.5871 12.8875 29.7987 13.2024 29.9431 13.5492C30.0882 13.8974 30.1629 14.2708 30.1629 14.648C30.1629 15.0252 30.0882 15.3986 29.9431 15.7468C29.7985 16.0937 29.5871 16.4087 29.3206 16.6737L29.3178 16.6766L17.5132 28.5573C17.3544 28.7171 17.1442 28.8154 16.9198 28.8348L11.2055 29.3301C10.9253 29.3544 10.6487 29.2537 10.4498 29.0548C10.251 28.8558 10.1502 28.5792 10.1745 28.299L10.6697 22.5847C10.6891 22.3604 10.7875 22.1503 10.9473 21.9914L22.8286 10.1863C23.0936 9.9167 23.4094 9.70235 23.758 9.55571Z" fill="#DFB8FF"/>
<path d="M12.0317 3.89989C11.6551 2.24865 9.29939 2.25894 8.93722 3.91341L8.92219 3.98232L8.89224 4.11859C8.44274 6.13144 6.82406 7.67603 4.79071 8.02978C3.07008 8.32911 3.07009 10.7992 4.79071 11.0985C6.83116 11.4535 8.45404 13.0076 8.89693 15.0308L8.93722 15.2149C9.29939 16.8693 11.6551 16.8797 12.0317 15.2284L12.0807 15.0139C12.5404 12.9984 14.1652 11.4559 16.2019 11.1015C17.926 10.8016 17.926 8.32668 16.2019 8.02673C14.176 7.6743 12.5576 6.14624 12.0881 4.14644C12.076 4.09496 12.0647 4.04509 12.0527 3.99221L12.0504 3.98224L12.0317 3.89989Z" fill="#B961FF"/>
</svg>
