<svg width="25" height="24" viewBox="0 0 25 24" fill="none" xmlns="http://www.w3.org/2000/svg">
<path fill-rule="evenodd" clip-rule="evenodd" d="M20.3404 13.7142C19.3936 13.7142 18.6261 12.9467 18.6261 11.9999C18.6261 11.0532 19.3936 10.2856 20.3404 10.2856C21.2872 10.2856 22.0547 11.0532 22.0547 11.9999C22.0547 12.9467 21.2872 13.7142 20.3404 13.7142ZM10.911 11.9999C10.911 12.9467 11.6785 13.7142 12.6253 13.7142C13.572 13.7142 14.3396 12.9467 14.3396 11.9999C14.3396 11.0532 13.572 10.2856 12.6253 10.2856C11.6785 10.2856 10.911 11.0532 10.911 11.9999ZM3.19585 11.9999C3.19585 12.9467 3.96333 13.7142 4.91014 13.7142C5.85694 13.7142 6.62442 12.9467 6.62442 11.9999C6.62442 11.0532 5.85694 10.2856 4.91014 10.2856C3.96334 10.2856 3.19585 11.0532 3.19585 11.9999Z" fill="#B0ABB3"/>
</svg>
