<svg width="29" height="28" viewBox="0 0 29 28" fill="none" xmlns="http://www.w3.org/2000/svg">
<path fill-rule="evenodd" clip-rule="evenodd" d="M22.807 15.8181C21.8029 15.8181 20.989 15.0041 20.989 14C20.989 12.996 21.8029 12.182 22.807 12.182C23.811 12.182 24.625 12.996 24.625 14C24.625 15.0041 23.811 15.8181 22.807 15.8181ZM12.807 14C12.807 15.0041 13.6209 15.8181 14.625 15.8181C15.629 15.8181 16.443 15.0041 16.443 14C16.443 12.996 15.629 12.182 14.625 12.182C13.6209 12.182 12.807 12.996 12.807 14ZM4.62495 14C4.62495 15.0041 5.43888 15.8181 6.44298 15.8181C7.44707 15.8181 8.261 15.0041 8.261 14C8.261 12.996 7.44707 12.182 6.44298 12.182C5.43888 12.182 4.62495 12.996 4.62495 14Z" fill="#B0ABB3"/>
</svg>
