<svg width="24" height="24" viewBox="0 0 24 24" fill="none" xmlns="http://www.w3.org/2000/svg">
<path d="M21 3C21.5523 3 22 3.44772 22 4V19C22 19.5523 21.5523 20 21 20H14.9141L12.707 22.207C12.3165 22.5976 11.6835 22.5976 11.293 22.207L9.08594 20H3C2.44772 20 2 19.5523 2 19V4C2 3.44772 2.44772 3 3 3H21Z" fill="url(#paint0_linear_2938_6558)"/>
<path d="M9 15V8C9 7.44772 9.44772 7 10 7C10.5523 7 11 7.44772 11 8V15C11 15.5523 10.5523 16 10 16C9.44772 16 9 15.5523 9 15ZM5 13.5V9.5C5 8.94772 5.44772 8.5 6 8.5C6.55228 8.5 7 8.94772 7 9.5V13.5C7 14.0523 6.55228 14.5 6 14.5C5.44772 14.5 5 14.0523 5 13.5ZM17 13.5V9.5C17 8.94772 17.4477 8.5 18 8.5C18.5523 8.5 19 8.94772 19 9.5V13.5C19 14.0523 18.5523 14.5 18 14.5C17.4477 14.5 17 14.0523 17 13.5ZM13 12.5V10.5C13 9.94772 13.4477 9.5 14 9.5C14.5523 9.5 15 9.94772 15 10.5V12.5C15 13.0523 14.5523 13.5 14 13.5C13.4477 13.5 13 13.0523 13 12.5Z" fill="url(#paint1_linear_2938_6558)"/>
<defs>
<linearGradient id="paint0_linear_2938_6558" x1="12" y1="3" x2="12" y2="25.5" gradientUnits="userSpaceOnUse">
<stop stop-color="#F1DFFF"/>
<stop offset="0.669547" stop-color="#DFB8FF"/>
<stop offset="1" stop-color="#B961FF"/>
</linearGradient>
<linearGradient id="paint1_linear_2938_6558" x1="-8" y1="11.5" x2="19" y2="11.5" gradientUnits="userSpaceOnUse">
<stop stop-color="#8308D2"/>
<stop offset="1" stop-color="#B961FF"/>
</linearGradient>
</defs>
</svg>
