<svg width="375" height="504" viewBox="0 0 375 504" fill="none" xmlns="http://www.w3.org/2000/svg">
<rect width="375" height="504" fill="#FAF5FF"/>
<g filter="url(#filter0_d_1805_10595)">
<rect x="72" y="379.1" width="300" height="56.2" rx="28.1" fill="white" shape-rendering="crispEdges"/>
<g opacity="0.5">
<path fill-rule="evenodd" clip-rule="evenodd" d="M118.843 391.624C118.322 391.103 117.478 391.103 116.957 391.624L108.957 399.624C108.436 400.145 108.436 400.989 108.957 401.509C109.478 402.03 110.322 402.03 110.843 401.509L111.233 401.119V407.233C111.233 407.97 111.83 408.567 112.567 408.567H123.233C123.97 408.567 124.567 407.97 124.567 407.233V401.119L124.957 401.509C125.478 402.03 126.322 402.03 126.843 401.509C127.363 400.989 127.363 400.145 126.843 399.624L118.843 391.624Z" fill="#B0ABB3"/>
<path d="M114.991 420.895H120.78V423.324H114.991V420.895ZM114.06 420.3V419.609H117.449V419.014C115.951 418.946 115.135 418.543 115.135 417.823C115.135 417.036 116.114 416.623 117.881 416.623C119.647 416.623 120.636 417.036 120.636 417.823C120.636 418.543 119.81 418.946 118.322 419.014V419.609H121.711V420.3H114.06ZM114.453 416.316V415.634H117.449V414.857H118.322V415.634H121.279V416.316H114.453ZM115.845 422.662H119.925V421.558H115.845V422.662ZM116.057 417.823C116.057 418.207 116.7 418.418 117.881 418.418C119.071 418.418 119.714 418.207 119.714 417.823C119.714 417.439 119.071 417.228 117.881 417.228C116.7 417.228 116.057 417.439 116.057 417.823Z" fill="#B0ABB3"/>
</g>
<path fill-rule="evenodd" clip-rule="evenodd" d="M182.77 392.449C183.258 392.19 183.442 391.584 183.182 391.097C182.923 390.609 182.317 390.425 181.83 390.684C180.454 391.417 179.226 392.4 178.209 393.581C177.848 394 177.896 394.631 178.314 394.991C178.733 395.352 179.364 395.304 179.724 394.886C180.58 393.892 181.613 393.066 182.77 392.449ZM187.3 409.233C191.718 409.233 195.3 405.652 195.3 401.234C195.3 396.815 191.718 393.234 187.3 393.234C182.882 393.234 179.3 396.815 179.3 401.234C179.3 405.652 182.882 409.233 187.3 409.233ZM191.417 391.097C191.677 390.609 192.283 390.425 192.77 390.684C194.146 391.417 195.374 392.4 196.391 393.581C196.751 394 196.704 394.631 196.286 394.991C195.867 395.352 195.236 395.304 194.875 394.886C194.02 393.892 192.987 393.066 191.83 392.449C191.342 392.19 191.158 391.584 191.417 391.097ZM188.133 397.233C188.133 396.773 187.76 396.4 187.3 396.4C186.84 396.4 186.467 396.773 186.467 397.233V401.233C186.467 401.694 186.84 402.067 187.3 402.067H190.633C191.093 402.067 191.467 401.694 191.467 401.233C191.467 400.773 191.093 400.4 190.633 400.4H188.133V397.233Z" fill="#2F044B"/>
<path d="M175.636 415.721H179.581V416.441H176.509V418.092H179.408V418.783H176.509V420.703C177.93 420.703 178.967 420.655 180.186 420.454L180.272 421.154C178.976 421.385 177.853 421.423 176.298 421.423H175.636V415.721ZM180.925 423.439V414.972H181.808V418.332H183.152V419.062H181.808V423.439H180.925ZM189.527 414.953H190.401V423.449H189.527V414.953ZM183.748 418.572C183.748 416.748 184.65 415.606 185.917 415.606C187.175 415.606 188.087 416.748 188.087 418.572C188.087 420.386 187.175 421.548 185.917 421.548C184.65 421.548 183.748 420.386 183.748 418.572ZM184.593 418.572C184.593 419.916 185.14 420.761 185.917 420.761C186.695 420.761 187.242 419.916 187.242 418.572C187.242 417.228 186.695 416.393 185.917 416.393C185.14 416.393 184.593 417.228 184.593 418.572ZM191.985 415.769H195.882V418.015H197.783V414.953H198.657V423.449H197.783V418.735H195.882V421.318H191.985V415.769ZM192.849 420.617H195.018V416.47H192.849V420.617Z" fill="#2F044B"/>
<g opacity="0.5">
<path fill-rule="evenodd" clip-rule="evenodd" d="M251.394 391.567C251.394 391.014 251.842 390.567 252.394 390.567H261.006C261.558 390.567 262.006 391.014 262.006 391.567C262.006 392.119 261.558 392.566 261.006 392.566H260.033V399.003L264.681 404.919C266.056 406.668 264.809 409.232 262.584 409.232H250.815C248.59 409.232 247.344 406.668 248.719 404.919L253.367 399.003V392.566H252.394C251.842 392.566 251.394 392.119 251.394 391.567Z" fill="#B0ABB3"/>
<path d="M250.738 414.972H251.612V419.321H250.738V414.972ZM244.69 418.582C245.996 418.14 246.812 417.026 246.812 415.836V415.202H247.695V415.836C247.695 416.978 248.511 418.015 249.797 418.428L249.365 419.119C248.386 418.793 247.647 418.111 247.263 417.238C246.898 418.169 246.14 418.918 245.122 419.273L244.69 418.582ZM246.101 420.425V419.743H251.612V421.836H246.985V422.652H251.89V423.353H246.121V421.193H250.748V420.425H246.101ZM258.966 414.972H259.839V420.089H258.966V418.236H257.641V417.516H258.966V414.972ZM252.87 416.518V415.817H254.886V414.886H255.759V415.817H257.775V416.518H252.87ZM253.34 418.428C253.34 417.535 254.175 416.911 255.327 416.911C256.479 416.911 257.295 417.535 257.295 418.428C257.295 419.33 256.479 419.935 255.327 419.935C254.175 419.935 253.34 419.33 253.34 418.428ZM254.185 418.428C254.185 418.937 254.655 419.282 255.327 419.282C255.98 419.282 256.45 418.937 256.45 418.428C256.45 417.91 255.98 417.574 255.327 417.574C254.655 417.574 254.185 417.91 254.185 418.428ZM254.31 423.324V420.511H259.839V423.324H254.31ZM255.174 422.623H258.985V421.222H255.174V422.623ZM267.135 414.972H268.009V419.321H267.135V414.972ZM261.087 418.582C262.393 418.14 263.209 417.026 263.209 415.836V415.202H264.092V415.836C264.092 416.978 264.908 418.015 266.195 418.428L265.763 419.119C264.783 418.793 264.044 418.111 263.66 417.238C263.295 418.169 262.537 418.918 261.519 419.273L261.087 418.582ZM262.499 420.425V419.743H268.009V421.836H263.382V422.652H268.287V423.353H262.518V421.193H267.145V420.425H262.499Z" fill="#B0ABB3"/>
</g>
<g opacity="0.5">
<path fill-rule="evenodd" clip-rule="evenodd" d="M333.737 401.597C332.799 401.597 332.04 400.837 332.04 399.9C332.04 398.963 332.799 398.203 333.737 398.203C334.674 398.203 335.433 398.963 335.433 399.9C335.433 400.837 334.674 401.597 333.737 401.597ZM324.403 399.9C324.403 400.837 325.163 401.597 326.1 401.597C327.037 401.597 327.797 400.837 327.797 399.9C327.797 398.963 327.037 398.203 326.1 398.203C325.163 398.203 324.403 398.963 324.403 399.9ZM316.767 399.9C316.767 400.837 317.526 401.597 318.463 401.597C319.401 401.597 320.16 400.837 320.16 399.9C320.16 398.963 319.401 398.203 318.463 398.203C317.526 398.203 316.767 398.963 316.767 399.9Z" fill="#B0ABB3"/>
<path d="M314.484 415.759H318.324V416.47H315.348V420.636C316.788 420.636 317.757 420.588 318.861 420.377L318.957 421.087C317.748 421.318 316.73 421.366 315.136 421.366H314.484V415.759ZM317.853 418.726V418.006H320.186V414.962H321.069V423.449H320.186V418.726H317.853ZM322.26 421.644H325.649V419.887H323.143V415.548H324.017V417.007H328.164V415.548H329.037V419.887H326.522V421.644H329.93V422.374H322.26V421.644ZM324.017 419.186H328.164V417.718H324.017V419.186ZM336.545 414.962H337.428V423.43H336.545V414.962ZM330.535 421.193C332.782 420.108 333.866 418.562 334.039 416.575H330.938V415.865H334.922C334.922 418.351 333.876 420.492 330.996 421.884L330.535 421.193Z" fill="#B0ABB3"/>
</g>
</g>
<g filter="url(#filter1_f_1805_10595)">
<path d="M224.488 410.4H151.512L56.7998 250.4H320L224.488 410.4Z" fill="url(#paint0_linear_1805_10595)"/>
</g>
<g filter="url(#filter2_d_1805_10595)">
<rect x="152" y="371.9" width="72" height="72" rx="36" fill="white" shape-rendering="crispEdges"/>
<path fill-rule="evenodd" clip-rule="evenodd" d="M182.519 389.205C183.109 388.891 183.332 388.158 183.018 387.568C182.704 386.978 181.971 386.755 181.381 387.069C179.716 387.956 178.23 389.144 177 390.574C176.564 391.08 176.621 391.844 177.127 392.28C177.634 392.716 178.398 392.659 178.834 392.153C179.869 390.95 181.118 389.951 182.519 389.205ZM188 409.513C193.346 409.513 197.68 405.18 197.68 399.834C197.68 394.487 193.346 390.153 188 390.153C182.654 390.153 178.32 394.487 178.32 399.834C178.32 405.18 182.654 409.513 188 409.513ZM192.982 387.568C193.296 386.978 194.029 386.755 194.619 387.069C196.284 387.956 197.769 389.144 199 390.574C199.436 391.08 199.379 391.844 198.873 392.28C198.366 392.716 197.602 392.659 197.166 392.153C196.131 390.95 194.881 389.951 193.481 389.205C192.891 388.891 192.668 388.158 192.982 387.568ZM189.008 394.993C189.008 394.436 188.557 393.985 188 393.985C187.443 393.985 186.992 394.436 186.992 394.993V399.833C186.992 400.39 187.443 400.842 188 400.842H192.033C192.59 400.842 193.042 400.39 193.042 399.833C193.042 399.276 192.59 398.825 192.033 398.825H189.008V394.993Z" fill="#2F044B"/>
<path d="M173.886 417.263H178.66V418.134H174.943V420.132H178.451V420.969H174.943V423.292C176.662 423.292 177.917 423.234 179.392 422.99L179.497 423.838C177.929 424.116 176.569 424.163 174.688 424.163H173.886V417.263ZM180.287 426.602V416.357H181.355V420.423H182.981V421.305H181.355V426.602H180.287ZM190.695 416.334H191.752V426.614H190.695V416.334ZM183.702 420.713C183.702 418.506 184.794 417.124 186.327 417.124C187.849 417.124 188.952 418.506 188.952 420.713C188.952 422.908 187.849 424.314 186.327 424.314C184.794 424.314 183.702 422.908 183.702 420.713ZM184.724 420.713C184.724 422.339 185.386 423.361 186.327 423.361C187.268 423.361 187.93 422.339 187.93 420.713C187.93 419.087 187.268 418.076 186.327 418.076C185.386 418.076 184.724 419.087 184.724 420.713ZM193.669 417.321H198.385V420.039H200.685V416.334H201.742V426.614H200.685V420.91H198.385V424.035H193.669V417.321ZM194.714 423.187H197.339V418.169H194.714V423.187Z" fill="#2F044B"/>
</g>
<g filter="url(#filter3_d_1805_10595)">
<path d="M225.825 439.629L212.612 435.133C211.27 434.704 210.153 433.76 209.507 432.508C208.862 431.255 208.74 429.798 209.168 428.455C209.597 427.113 210.542 425.996 211.794 425.351C213.046 424.705 214.504 424.583 215.846 425.012L217.492 425.537L208.761 410.234C208.406 409.628 208.175 408.957 208.082 408.261C207.988 407.565 208.033 406.857 208.215 406.178C208.397 405.5 208.711 404.864 209.14 404.308C209.569 403.751 210.105 403.286 210.715 402.938C211.325 402.59 211.998 402.366 212.696 402.28C213.393 402.194 214.1 402.247 214.777 402.436C215.453 402.625 216.086 402.947 216.637 403.382C217.189 403.817 217.648 404.357 217.99 404.971L221.282 410.738C221.929 410.374 222.646 410.15 223.386 410.082C224.125 410.013 224.871 410.101 225.574 410.34C226.069 409.699 226.704 409.18 227.431 408.823C228.136 408.489 228.906 408.314 229.686 408.312C230.148 407.777 230.713 407.34 231.347 407.026C231.972 406.715 232.652 406.531 233.348 406.483C234.045 406.436 234.744 406.526 235.405 406.749C236.066 406.972 236.677 407.323 237.203 407.782C237.728 408.242 238.158 408.8 238.467 409.426L247.301 427.239" fill="url(#paint1_linear_1805_10595)"/>
<path d="M224.284 443.912C223.27 442.155 223.872 439.908 225.628 438.894L245.776 427.262C247.533 426.247 249.78 426.849 250.794 428.606L256.61 438.68C257.624 440.437 257.023 442.684 255.266 443.698L235.118 455.33C233.361 456.345 231.114 455.743 230.1 453.986L224.284 443.912Z" fill="url(#paint2_linear_1805_10595)"/>
</g>
<g filter="url(#filter4_i_1805_10595)">
<circle cx="188" cy="220" r="100" fill="#2F044B"/>
</g>
<path d="M138 306.602C151.284 314.272 166.154 318.783 181.46 319.786C196.766 320.789 212.097 318.258 226.268 312.388C240.44 306.518 253.07 297.467 263.184 285.934C273.298 274.402 280.623 260.698 284.593 245.882C288.563 231.066 289.071 215.535 286.079 200.491C283.086 185.447 276.673 171.293 267.335 159.124C257.998 146.955 245.986 137.097 232.229 130.313C218.472 123.528 203.339 120 188 120L188 220L138 306.602Z" fill="#B961FF"/>
<rect x="75" y="238" width="64.7072" height="39.432" rx="19.716" fill="#B961FF"/>
<path d="M95.1291 252.54H98.2109V251.213H99.7887V252.54H102.856V253.794H95.1291V252.54ZM95.8221 256.728C95.8221 255.283 97.1197 254.31 98.9924 254.31C100.88 254.31 102.192 255.283 102.192 256.728C102.192 258.158 100.88 259.102 98.9924 259.102C97.1197 259.102 95.8221 258.158 95.8221 256.728ZM96.7363 261.388V260.105H105.377V264.396H103.785V261.388H96.7363ZM97.3262 256.728C97.3262 257.465 98.0045 257.908 98.9924 257.908C99.9951 257.908 100.659 257.465 100.659 256.728C100.659 255.961 99.9951 255.534 98.9924 255.534C98.0045 255.534 97.3262 255.961 97.3262 256.728ZM103.785 259.5V251.287H105.377V254.767H107.191V256.079H105.377V259.5H103.785ZM109.138 259.131H110.701V260.429H116.466V259.131H118.029V264.233H109.138V259.131ZM107.707 258.379V257.126H119.548V258.379H107.707ZM108.327 255.15C111.025 254.811 112.824 253.381 112.824 251.906V251.434H114.446V251.906C114.446 253.351 116.26 254.826 118.929 255.15L118.368 256.374C116.201 256.079 114.476 255.106 113.635 253.779C112.809 255.121 111.069 256.079 108.902 256.374L108.327 255.15ZM110.701 262.98H116.466V261.623H110.701V262.98Z" fill="white"/>
<rect x="219" y="128" width="54.256" height="32.36" rx="16.18" fill="#B961FF"/>
<rect x="219" y="128" width="54.256" height="32.36" rx="16.18" fill="white" fill-opacity="0.2"/>
<path d="M235.929 144.109H240.205V142.991H237.157V139.194H244.616V140.238H238.472V141.934H244.715V142.991H241.532V144.109H245.808V145.141H235.929V144.109ZM237.022 147.083V146.038H244.629V149.724H243.314V147.083H237.022ZM251.903 142.29H254.189V138.727H255.504V149.688H254.189V143.347H251.903V142.29ZM246.325 146.358C248.057 145.534 249.077 143.421 249.077 141.369V139.611H250.404V141.369C250.404 143.396 251.375 145.399 253.083 146.173L252.309 147.23C251.08 146.628 250.22 145.461 249.741 144.035C249.261 145.534 248.377 146.788 247.148 147.414L246.325 146.358Z" fill="white"/>
<rect x="218" y="272" width="72.4114" height="43.6721" rx="21.8361" fill="#8308D2"/>
<path d="M240.826 287.9H248.748V289.322H245.705V289.504C245.705 291.34 246.879 293.109 249.161 293.87L248.252 295.276C246.631 294.73 245.474 293.622 244.829 292.233C244.184 293.754 242.96 294.961 241.273 295.54L240.33 294.151C242.679 293.357 243.919 291.455 243.919 289.504V289.322H240.826V287.9ZM242.282 297.955V296.516H251.973V301.659H250.203V297.955H242.282ZM250.203 295.805V286.957H251.973V290.662H254.024V292.133H251.973V295.805H250.203ZM258.638 287.602C260.556 287.602 262.045 288.694 262.392 290.314H265.021V286.957H266.808V294.846H265.021V291.753H262.409C262.078 293.407 260.573 294.531 258.638 294.531C256.422 294.531 254.785 293.093 254.785 291.058C254.785 289.024 256.422 287.602 258.638 287.602ZM256.488 291.058C256.488 292.266 257.381 293.026 258.638 293.026C259.878 293.026 260.755 292.266 260.755 291.058C260.755 289.851 259.878 289.074 258.638 289.074C257.381 289.074 256.488 289.851 256.488 291.058ZM257.199 301.477V295.54H258.969V297.111H265.038V295.54H266.808V301.477H257.199ZM258.969 300.055H265.038V298.5H258.969V300.055Z" fill="white"/>
<rect opacity="0.5" x="375" y="366" width="80" height="82" transform="rotate(90 375 366)" fill="url(#paint3_linear_1805_10595)"/>
<defs>
<filter id="filter0_d_1805_10595" x="32" y="341.1" width="380" height="136.2" filterUnits="userSpaceOnUse" color-interpolation-filters="sRGB">
<feFlood flood-opacity="0" result="BackgroundImageFix"/>
<feColorMatrix in="SourceAlpha" type="matrix" values="0 0 0 0 0 0 0 0 0 0 0 0 0 0 0 0 0 0 127 0" result="hardAlpha"/>
<feOffset dy="2"/>
<feGaussianBlur stdDeviation="20"/>
<feComposite in2="hardAlpha" operator="out"/>
<feColorMatrix type="matrix" values="0 0 0 0 0 0 0 0 0 0 0 0 0 0 0 0 0 0 0.05 0"/>
<feBlend mode="normal" in2="BackgroundImageFix" result="effect1_dropShadow_1805_10595"/>
<feBlend mode="normal" in="SourceGraphic" in2="effect1_dropShadow_1805_10595" result="shape"/>
</filter>
<filter id="filter1_f_1805_10595" x="53.5998" y="247.2" width="269.6" height="166.4" filterUnits="userSpaceOnUse" color-interpolation-filters="sRGB">
<feFlood flood-opacity="0" result="BackgroundImageFix"/>
<feBlend mode="normal" in="SourceGraphic" in2="BackgroundImageFix" result="shape"/>
<feGaussianBlur stdDeviation="0" result="effect1_foregroundBlur_1805_10595"/>
</filter>
<filter id="filter2_d_1805_10595" x="136" y="355.9" width="104" height="104" filterUnits="userSpaceOnUse" color-interpolation-filters="sRGB">
<feFlood flood-opacity="0" result="BackgroundImageFix"/>
<feColorMatrix in="SourceAlpha" type="matrix" values="0 0 0 0 0 0 0 0 0 0 0 0 0 0 0 0 0 0 127 0" result="hardAlpha"/>
<feOffset/>
<feGaussianBlur stdDeviation="8"/>
<feComposite in2="hardAlpha" operator="out"/>
<feColorMatrix type="matrix" values="0 0 0 0 0.72549 0 0 0 0 0.380392 0 0 0 0 1 0 0 0 1 0"/>
<feBlend mode="normal" in2="BackgroundImageFix" result="effect1_dropShadow_1805_10595"/>
<feBlend mode="normal" in="SourceGraphic" in2="effect1_dropShadow_1805_10595" result="shape"/>
</filter>
<filter id="filter3_d_1805_10595" x="188.034" y="382.24" width="89.0686" height="93.5829" filterUnits="userSpaceOnUse" color-interpolation-filters="sRGB">
<feFlood flood-opacity="0" result="BackgroundImageFix"/>
<feColorMatrix in="SourceAlpha" type="matrix" values="0 0 0 0 0 0 0 0 0 0 0 0 0 0 0 0 0 0 127 0" result="hardAlpha"/>
<feOffset/>
<feGaussianBlur stdDeviation="10"/>
<feComposite in2="hardAlpha" operator="out"/>
<feColorMatrix type="matrix" values="0 0 0 0 0.72549 0 0 0 0 0.380392 0 0 0 0 1 0 0 0 0.2 0"/>
<feBlend mode="normal" in2="BackgroundImageFix" result="effect1_dropShadow_1805_10595"/>
<feBlend mode="normal" in="SourceGraphic" in2="effect1_dropShadow_1805_10595" result="shape"/>
</filter>
<filter id="filter4_i_1805_10595" x="80" y="120" width="208" height="208" filterUnits="userSpaceOnUse" color-interpolation-filters="sRGB">
<feFlood flood-opacity="0" result="BackgroundImageFix"/>
<feBlend mode="normal" in="SourceGraphic" in2="BackgroundImageFix" result="shape"/>
<feColorMatrix in="SourceAlpha" type="matrix" values="0 0 0 0 0 0 0 0 0 0 0 0 0 0 0 0 0 0 127 0" result="hardAlpha"/>
<feOffset dx="-8" dy="8"/>
<feGaussianBlur stdDeviation="10"/>
<feComposite in2="hardAlpha" operator="arithmetic" k2="-1" k3="1"/>
<feColorMatrix type="matrix" values="0 0 0 0 0.72549 0 0 0 0 0.380392 0 0 0 0 1 0 0 0 1 0"/>
<feBlend mode="normal" in2="shape" result="effect1_innerShadow_1805_10595"/>
</filter>
<linearGradient id="paint0_linear_1805_10595" x1="188.4" y1="250.4" x2="188.4" y2="410.4" gradientUnits="userSpaceOnUse">
<stop stop-color="white" stop-opacity="0"/>
<stop offset="1" stop-color="#DFB8FF"/>
</linearGradient>
<linearGradient id="paint1_linear_1805_10595" x1="228.651" y1="439.487" x2="226.741" y2="401.559" gradientUnits="userSpaceOnUse">
<stop stop-color="#FFCFCF"/>
<stop offset="1" stop-color="#F89E9E"/>
</linearGradient>
<linearGradient id="paint2_linear_1805_10595" x1="235.702" y1="433.078" x2="245.192" y2="449.514" gradientUnits="userSpaceOnUse">
<stop stop-color="#FA978B"/>
<stop offset="1" stop-color="#EAAED5"/>
</linearGradient>
<linearGradient id="paint3_linear_1805_10595" x1="415" y1="366" x2="415" y2="448" gradientUnits="userSpaceOnUse">
<stop stop-color="#FAF5FF"/>
<stop offset="1" stop-color="#FAF5FF" stop-opacity="0"/>
</linearGradient>
</defs>
</svg>
