<svg width="25" height="24" viewBox="0 0 25 24" fill="none" xmlns="http://www.w3.org/2000/svg">
<path d="M12.5508 22C18.0736 22 22.5508 17.5228 22.5508 12C22.5508 6.47715 18.0736 2 12.5508 2C7.02793 2 2.55078 6.47715 2.55078 12C2.55078 17.5228 7.02793 22 12.5508 22Z" fill="#F1DFFF"/>
<path d="M12.4779 4.33972C12.4779 4.17626 12.4779 4.09509 12.531 4.0448C12.584 3.9945 12.6648 3.99678 12.8239 4.00364C14.2104 4.06265 15.5582 4.47494 16.7371 5.20069C17.916 5.92645 18.8863 6.94118 19.5542 8.14692C20.2222 9.35267 20.5652 10.7087 20.5503 12.0842C20.5354 13.4596 20.163 14.8081 19.469 15.9993C18.7751 17.1905 17.7831 18.1843 16.5887 18.8848C15.3943 19.5853 14.0379 19.9687 12.6504 19.9982C11.2629 20.0276 9.89118 19.702 8.66763 19.0529C7.44409 18.4037 6.41004 17.4529 5.6653 16.2922C5.57995 16.1596 5.53728 16.0922 5.55458 16.0213C5.57188 15.9504 5.64338 15.9093 5.78524 15.8281L12.3049 12.0981C12.3891 12.0489 12.4318 12.0249 12.4549 11.9849C12.4779 11.9461 12.4779 11.8969 12.4779 11.8009V4.33972Z" fill="url(#paint0_linear_1588_4580)"/>
<defs>
<linearGradient id="paint0_linear_1588_4580" x1="13.0508" y1="4" x2="13.0508" y2="20" gradientUnits="userSpaceOnUse">
<stop stop-color="#B961FF"/>
<stop offset="1" stop-color="#8016D3"/>
</linearGradient>
</defs>
</svg>
