<svg width="24" height="24" viewBox="0 0 24 24" fill="none" xmlns="http://www.w3.org/2000/svg">
<path d="M13.2478 3.25C13.2478 2.55859 12.6893 2 11.998 2C11.3068 2 10.7483 2.55859 10.7483 3.25V3.69922C10.7483 5.64844 8.39328 6.625 7.01465 5.24609L6.6944 4.92969C6.20621 4.44141 5.4173 4.44141 4.92912 4.92969C4.44093 5.41797 4.44093 6.21094 4.92912 6.69922L5.24937 7.01953C6.6241 8.39453 5.64773 10.75 3.69889 10.75H3.24976C2.55848 10.75 2 11.3086 2 12C2 12.6914 2.55848 13.25 3.24976 13.25H3.69889C5.64773 13.25 6.6241 15.6055 5.24546 16.9844L4.92912 17.3047C4.44093 17.793 4.44093 18.5859 4.92912 19.0742C5.4173 19.5625 6.21012 19.5625 6.6983 19.0742L7.01855 18.7539C8.39719 17.375 10.7522 18.3516 10.7522 20.3008V20.75C10.7522 21.4414 11.3107 22 12.002 22C12.6932 22 13.2517 21.4414 13.2517 20.75V20.3008C13.2517 18.3516 15.6067 17.375 16.9854 18.7539L17.3056 19.0742C17.7938 19.5625 18.5866 19.5625 19.0748 19.0742C19.563 18.5859 19.563 17.793 19.0748 17.3047L18.7545 16.9844C17.3759 15.6055 18.3523 13.25 20.3011 13.25H20.7502C21.4415 13.25 22 12.6914 22 12C22 11.3086 21.4415 10.75 20.7502 10.75H20.3011C18.3523 10.75 17.3759 8.39453 18.7545 7.01562L19.0748 6.69531C19.563 6.20703 19.563 5.41406 19.0748 4.92578C18.5866 4.4375 17.7938 4.4375 17.3056 4.92578L16.9854 5.24609C15.6028 6.625 13.2478 5.64844 13.2478 3.69922V3.25ZM8.87366 10.75C8.87366 10.5038 8.92215 10.26 9.01636 10.0325C9.11056 9.80498 9.24865 9.59828 9.42273 9.42417C9.5968 9.25006 9.80346 9.11195 10.0309 9.01773C10.2583 8.9235 10.5021 8.875 10.7483 8.875C10.9945 8.875 11.2382 8.9235 11.4657 9.01773C11.6931 9.11195 11.8998 9.25006 12.0739 9.42417C12.2479 9.59828 12.386 9.80498 12.4802 10.0325C12.5744 10.26 12.6229 10.5038 12.6229 10.75C12.6229 10.9962 12.5744 11.24 12.4802 11.4675C12.386 11.695 12.2479 11.9017 12.0739 12.0758C11.8998 12.2499 11.6931 12.388 11.4657 12.4823C11.2382 12.5765 10.9945 12.625 10.7483 12.625C10.5021 12.625 10.2583 12.5765 10.0309 12.4823C9.80346 12.388 9.5968 12.2499 9.42273 12.0758C9.24865 11.9017 9.11056 11.695 9.01636 11.4675C8.92215 11.24 8.87366 10.9962 8.87366 10.75ZM13.8727 12.9375C14.1213 12.9375 14.3597 13.0363 14.5355 13.2121C14.7112 13.3879 14.81 13.6264 14.81 13.875C14.81 14.1236 14.7112 14.3621 14.5355 14.5379C14.3597 14.7137 14.1213 14.8125 13.8727 14.8125C13.6241 14.8125 13.3857 14.7137 13.2099 14.5379C13.0341 14.3621 12.9354 14.1236 12.9354 13.875C12.9354 13.6264 13.0341 13.3879 13.2099 13.2121C13.3857 13.0363 13.6241 12.9375 13.8727 12.9375Z" fill="url(#paint0_radial_1143_16602)"/>
<circle cx="10.5" cy="10.5" r="2.5" fill="#FFCBC3"/>
<circle cx="13.8809" cy="13.8809" r="1.11914" fill="#FF9F91"/>
<defs>
<radialGradient id="paint0_radial_1143_16602" cx="0" cy="0" r="1" gradientUnits="userSpaceOnUse" gradientTransform="translate(12 12) rotate(90) scale(10)">
<stop offset="0.674074" stop-color="#FF725E"/>
<stop offset="1" stop-color="#FF462B"/>
</radialGradient>
</defs>
</svg>
