<svg width="24" height="24" viewBox="0 0 24 24" fill="none" xmlns="http://www.w3.org/2000/svg">
<path d="M7.37506 2.74688C7.8439 2.27804 8.47978 2.01465 9.14282 2.01465H14.8571C15.5202 2.01465 16.156 2.27804 16.6249 2.74688C17.0937 3.21572 17.3571 3.85161 17.3571 4.51465V7.00037H15.2143V4.51465C15.2143 4.41993 15.1766 4.32909 15.1096 4.26211C15.0427 4.19513 14.9518 4.15751 14.8571 4.15751H9.14282C9.0481 4.15751 8.95726 4.19513 8.89028 4.26211C8.82331 4.32909 8.78568 4.41993 8.78568 4.51465V7.00037H6.64282V4.51465C6.64282 3.85161 6.90621 3.21572 7.37506 2.74688Z" fill="#DFB8FF"/>
<path d="M4.14286 6.27148H8.78571H17.3571H19.8571C20.4255 6.27148 20.9705 6.49725 21.3724 6.89911C21.7742 7.30098 22 7.84602 22 8.41434V19.8429C22 20.4112 21.7742 20.9563 21.3724 21.3581C20.9705 21.76 20.4255 21.9858 19.8571 21.9858H4.14286C3.57454 21.9858 3.02949 21.76 2.62763 21.3581C2.22576 20.9563 2 20.4112 2 19.8429V8.41434C2 7.84602 2.22576 7.30098 2.62763 6.89911C3.02949 6.49725 3.57454 6.27148 4.14286 6.27148Z" fill="url(#paint0_linear_2938_3538)"/>
<path d="M4.14286 6.27148H8.78571H17.3571H19.8571C20.4255 6.27148 20.9705 6.49725 21.3724 6.89911C21.7742 7.30098 22 7.84602 22 8.41434V11.0001L14.5908 14.6411H9.4092L2 11.0001V8.41434C2 7.84602 2.22576 7.30098 2.62763 6.89911C3.02949 6.49725 3.57454 6.27148 4.14286 6.27148Z" fill="url(#paint1_linear_2938_3538)"/>
<rect x="9" y="13.1855" width="6" height="4" rx="1" fill="#8016D3"/>
<defs>
<linearGradient id="paint0_linear_2938_3538" x1="12" y1="2.5" x2="12" y2="23.4891" gradientUnits="userSpaceOnUse">
<stop stop-color="#B961FF"/>
<stop offset="0.966302" stop-color="#EACFFF"/>
</linearGradient>
<linearGradient id="paint1_linear_2938_3538" x1="12" y1="6.27148" x2="12" y2="136" gradientUnits="userSpaceOnUse">
<stop stop-color="#B961FF"/>
<stop offset="1" stop-color="#2F044B"/>
</linearGradient>
</defs>
</svg>
