<svg width="24" height="24" viewBox="0 0 24 24" fill="none" xmlns="http://www.w3.org/2000/svg">
<path d="M4 4C4 2.89543 4.89543 2 6 2H18C19.1046 2 20 2.89543 20 4V19C20 20.6569 18.6569 22 17 22H7C5.34315 22 4 20.6569 4 19V4Z" fill="url(#paint0_linear_2938_5892)"/>
<path d="M4 19.5C4 18.1193 5.11929 17 6.5 17H17.5C18.8807 17 20 18.1193 20 19.5C20 20.8807 18.8807 22 17.5 22H6.5C5.11929 22 4 20.8807 4 19.5Z" fill="#B961FF"/>
<path d="M15 7.99994L8 7.99994C7.44772 7.99994 7 7.55223 7 6.99994C7 6.44766 7.44772 5.99994 8 5.99994L15 5.99994C15.5523 5.99994 16 6.44766 16 6.99994C16 7.55223 15.5523 7.99994 15 7.99994ZM12 12L8 12C7.44772 12 7 11.5523 7 11C7 10.4477 7.44771 10 8 10L12 10C12.5523 10 13 10.4477 13 11C13 11.5523 12.5523 12 12 12Z" fill="url(#paint1_linear_2938_5892)"/>
<defs>
<linearGradient id="paint0_linear_2938_5892" x1="11" y1="2" x2="11" y2="36.5" gradientUnits="userSpaceOnUse">
<stop stop-color="#F1DFFF"/>
<stop offset="0.273573" stop-color="#DFB8FF"/>
<stop offset="1" stop-color="#B961FF"/>
</linearGradient>
<linearGradient id="paint1_linear_2938_5892" x1="11.5" y1="12" x2="11.5" y2="-2" gradientUnits="userSpaceOnUse">
<stop stop-color="#8308D2"/>
<stop offset="1" stop-color="#B961FF"/>
</linearGradient>
</defs>
</svg>
