<svg width="40" height="40" viewBox="0 0 40 40" fill="none" xmlns="http://www.w3.org/2000/svg">
<rect width="40" height="40" rx="20" fill="#F6EAFF"/>
<path fill-rule="evenodd" clip-rule="evenodd" d="M15.0086 12.0675C16.3323 10.7438 18.1278 10.0001 19.9999 10.0001C21.872 10.0001 23.6675 10.7438 24.9913 12.0675C26.315 13.3913 27.0587 15.1868 27.0587 17.0589V22.5491C27.0587 22.9651 27.2241 23.3641 27.5182 23.6583C27.8123 23.9524 28.2113 24.1177 28.6273 24.1177C29.0604 24.1177 29.4117 24.4689 29.4117 24.902C29.4117 25.3351 29.0604 25.6863 28.6273 25.6863H11.3724C10.9393 25.6863 10.5881 25.3351 10.5881 24.902C10.5881 24.4689 10.9393 24.1177 11.3724 24.1177C11.7885 24.1177 12.1875 23.9524 12.4816 23.6583C12.7758 23.3641 12.9411 22.9651 12.9411 22.5491V17.0589C12.9411 15.1868 13.6848 13.3913 15.0086 12.0675ZM17.2548 28.8236C17.2548 28.1739 17.7815 27.6471 18.4313 27.6471H21.5685C22.2183 27.6471 22.745 28.1739 22.745 28.8236C22.745 29.4733 22.2183 30.0001 21.5685 30.0001H18.4313C17.7815 30.0001 17.2548 29.4733 17.2548 28.8236Z" fill="#B961FF"/>
</svg>
