<svg width="24" height="24" viewBox="0 0 24 24" fill="none" xmlns="http://www.w3.org/2000/svg">
<path d="M4 4C4 2.89543 4.89543 2 6 2H14C15 3 19 7 20 8V19C20 20.6569 18.6569 22 17 22H7C5.34315 22 4 20.6569 4 19V4Z" fill="url(#paint0_linear_2938_7600)"/>
<path d="M10.6911 12.9808L11.6346 11.3607C11.6717 11.2967 11.725 11.2436 11.7891 11.2067C11.8532 11.1698 11.9258 11.1504 11.9998 11.1504C12.0737 11.1504 12.1464 11.1698 12.2105 11.2067C12.2746 11.2436 12.3278 11.2967 12.3649 11.3607L13.3085 12.9808L15.1417 13.3776C15.2139 13.3933 15.2808 13.4276 15.3355 13.4772C15.3903 13.5268 15.4311 13.5899 15.4539 13.6602C15.4766 13.7305 15.4805 13.8055 15.4652 13.8778C15.4499 13.9501 15.4158 14.017 15.3665 14.0721L14.1169 15.4705L14.3069 17.3364C14.3143 17.4099 14.3023 17.4841 14.2721 17.5516C14.2419 17.619 14.1945 17.6773 14.1347 17.7207C14.0748 17.7641 14.0047 17.791 13.9312 17.7988C13.8577 17.8065 13.7834 17.7948 13.7159 17.7649L11.9998 17.0092L10.2837 17.7649C10.2161 17.7948 10.1419 17.8065 10.0684 17.7988C9.99489 17.791 9.92472 17.7641 9.86489 17.7207C9.80505 17.6773 9.75766 17.619 9.72743 17.5516C9.69721 17.4841 9.68522 17.4099 9.69267 17.3364L9.88264 15.4705L8.63304 14.0721C8.58371 14.017 8.54967 13.9501 8.53434 13.8778C8.519 13.8055 8.52291 13.7305 8.54567 13.6602C8.56842 13.5899 8.60923 13.5268 8.66401 13.4772C8.71879 13.4276 8.78563 13.3933 8.85784 13.3776L10.6911 12.9808Z" fill="#8016D3"/>
<path fill-rule="evenodd" clip-rule="evenodd" d="M14 2.04297C14.379 2.12297 14.726 2.31197 15 2.58597L19.414 6.99997C19.688 7.27397 19.877 7.62097 19.957 7.99997H14V2.04297Z" fill="#B961FF"/>
<defs>
<linearGradient id="paint0_linear_2938_7600" x1="11" y1="2" x2="11" y2="45.5" gradientUnits="userSpaceOnUse">
<stop stop-color="#F1DFFF"/>
<stop offset="0.273573" stop-color="#DFB8FF"/>
<stop offset="0.813994" stop-color="#B961FF"/>
</linearGradient>
</defs>
</svg>
