<svg width="24" height="24" viewBox="0 0 24 24" fill="none" xmlns="http://www.w3.org/2000/svg">
<path fill-rule="evenodd" clip-rule="evenodd" d="M7.00856 4.06748C8.33234 2.7437 10.1278 2 11.9999 2C13.872 2 15.6675 2.7437 16.9913 4.06748C18.315 5.39126 19.0587 7.18671 19.0587 9.05882V14.549C19.0587 14.9651 19.2241 15.364 19.5182 15.6582C19.8123 15.9523 20.2113 16.1176 20.6273 16.1176C21.0604 16.1176 21.4117 16.4689 21.4117 16.902C21.4117 17.3351 21.0604 17.6863 20.6273 17.6863H3.37245C2.93929 17.6863 2.58813 17.3351 2.58813 16.902C2.58813 16.4689 2.93929 16.1176 3.37245 16.1176C3.78848 16.1176 4.18746 15.9523 4.48164 15.6582C4.77581 15.364 4.94108 14.9651 4.94108 14.549V9.05882C4.94108 7.18671 5.68478 5.39126 7.00856 4.06748ZM9.2548 20.8235C9.2548 20.1738 9.78153 19.6471 10.4313 19.6471H13.5685C14.2183 19.6471 14.745 20.1738 14.745 20.8235C14.745 21.4733 14.2183 22 13.5685 22H10.4313C9.78153 22 9.2548 21.4733 9.2548 20.8235Z" fill="#B0ABB3"/>
</svg>
