<svg width="66" height="20" viewBox="0 0 66 20" fill="none" xmlns="http://www.w3.org/2000/svg">
<path d="M65.3135 4.28763V7.137C65.3135 7.66164 65.2321 8.15915 65.0693 8.62953C64.9246 9.08181 64.6623 9.53409 64.2823 9.98637C64.608 10.3482 64.8613 10.7643 65.0422 11.2347C65.2231 11.705 65.3135 12.2478 65.3135 12.8629V19.9999H62.437V12.8629C62.437 12.3382 62.2923 11.9674 62.0028 11.7503C61.7315 11.5332 61.4058 11.4246 61.0259 11.4246H59.5877V19.9999H56.7383V4.28763C56.7383 3.22024 57.0549 2.28854 57.6881 1.49253C58.466 0.497509 59.5786 0 61.0259 0C62.4551 0 63.5587 0.497509 64.3366 1.49253C64.9879 2.30663 65.3135 3.23833 65.3135 4.28763ZM61.0259 8.57525C61.5325 8.57525 61.9124 8.42148 62.1657 8.11393C62.3466 7.87874 62.437 7.5531 62.437 7.137V4.28763C62.437 3.88962 62.3466 3.57302 62.1657 3.33784C61.9124 3.01219 61.5325 2.84937 61.0259 2.84937C60.5013 2.84937 60.1304 2.9941 59.9133 3.28356C59.6962 3.55493 59.5877 3.88962 59.5877 4.28763V8.57525H61.0259Z" fill="#98A2B3"/>
<path d="M55.1107 4.28763V7.137H52.2341V4.28763C52.2341 3.88962 52.1437 3.57302 51.9628 3.33784C51.7095 3.01219 51.3296 2.84937 50.823 2.84937C50.2984 2.84937 49.9275 2.9941 49.7104 3.28356C49.4933 3.55493 49.3848 3.88962 49.3848 4.28763V8.57525H53.6724V11.4246H49.3848V15.6851C49.3848 16.1012 49.4843 16.445 49.6833 16.7163C49.9004 16.9877 50.2803 17.1234 50.823 17.1234C51.3296 17.1234 51.7095 16.9696 51.9628 16.662C52.1437 16.4269 52.2341 16.1103 52.2341 15.7123V12.8629H55.1107V15.7123C55.1107 16.7615 54.7941 17.6842 54.1609 18.4802C53.3648 19.4933 52.2522 19.9999 50.823 19.9999C49.3938 19.9999 48.2903 19.5024 47.5123 18.5074C46.861 17.6752 46.5354 16.7435 46.5354 15.7123V4.28763C46.5354 3.22024 46.852 2.28854 47.4852 1.49253C48.2631 0.497509 49.3757 0 50.823 0C52.2522 0 53.3558 0.497509 54.1337 1.49253C54.785 2.30663 55.1107 3.23833 55.1107 4.28763Z" fill="#98A2B3"/>
<path d="M44.9079 4.28763V7.137C44.9079 7.66164 44.8265 8.15915 44.6637 8.62953C44.5189 9.08181 44.2566 9.53409 43.8767 9.98637C44.2023 10.3482 44.4556 10.7643 44.6365 11.2347C44.8174 11.705 44.9079 12.2478 44.9079 12.8629V15.7123C44.9079 16.7615 44.5913 17.6842 43.9581 18.4802C43.1621 19.4933 42.0495 19.9999 40.6203 19.9999C39.1911 19.9999 38.0875 19.5024 37.3096 18.5074C36.6583 17.6752 36.3326 16.7435 36.3326 15.7123V4.28763C36.3326 3.22024 36.6492 2.28854 37.2824 1.49253C38.0604 0.497509 39.173 0 40.6203 0C42.0495 0 43.153 0.497509 43.931 1.49253C44.5823 2.30663 44.9079 3.23833 44.9079 4.28763ZM39.182 4.28763V8.57525H40.6203C41.1268 8.57525 41.5067 8.42148 41.76 8.11393C41.9409 7.87874 42.0314 7.5531 42.0314 7.137V4.28763C42.0314 3.88962 41.9409 3.57302 41.76 3.33784C41.5067 3.01219 41.1268 2.84937 40.6203 2.84937C40.0956 2.84937 39.7248 2.9941 39.5077 3.28356C39.2906 3.55493 39.182 3.88962 39.182 4.28763ZM42.0314 12.8629C42.0314 12.3382 41.8867 11.9674 41.5972 11.7503C41.3258 11.5332 41.0002 11.4246 40.6203 11.4246H39.182V15.6851C39.182 16.1012 39.2815 16.445 39.4805 16.7163C39.6976 16.9877 40.0775 17.1234 40.6203 17.1234C41.1268 17.1234 41.5067 16.9696 41.76 16.662C41.9409 16.4269 42.0314 16.1103 42.0314 15.7123V12.8629Z" fill="#98A2B3"/>
<path d="M34.7068 4.28763V19.9999H31.8303V4.28763C31.8303 3.88962 31.7398 3.57302 31.5589 3.33784C31.3056 3.01219 30.9257 2.84937 30.4191 2.84937C29.8945 2.84937 29.5236 2.9941 29.3065 3.28356C29.0894 3.55493 28.9809 3.88962 28.9809 4.28763V19.9999H26.1315V4.28763C26.1315 3.88962 26.0411 3.57302 25.8602 3.33784C25.6069 3.01219 25.2179 2.84937 24.6933 2.84937C24.1686 2.84937 23.7977 2.98506 23.5807 3.25643C23.3816 3.52779 23.2821 3.87153 23.2821 4.28763V19.9999H20.4056V4.28763C20.4056 3.22024 20.7222 2.28854 21.3554 1.49253C22.1334 0.497509 23.246 0 24.6933 0C25.3084 0 25.8421 0.0904559 26.2943 0.271368C26.7647 0.43419 27.1808 0.678422 27.5426 1.00406C27.9045 0.678422 28.3206 0.43419 28.7909 0.271368C29.2613 0.0904559 29.804 0 30.4191 0C31.8484 0 32.9519 0.497509 33.7298 1.49253C34.3811 2.30663 34.7068 3.23833 34.7068 4.28763Z" fill="#98A2B3"/>
<path d="M18.7781 0V2.84937H15.9016V17.1234H18.7781V19.9999H10.2029V17.1234H13.0523V2.84937H10.2029V0H18.7781Z" fill="#98A2B3"/>
<path d="M8.57525 17.1236V20.0001H4.28763C2.85842 20.0001 1.75485 19.5026 0.976927 18.5076C0.325642 17.6754 0 16.7437 0 15.7125V0.000244141H2.84937V15.6854C2.84937 16.1015 2.94887 16.4452 3.14788 16.7166C3.36497 16.9879 3.74489 17.1236 4.28763 17.1236H8.57525Z" fill="#98A2B3"/>
</svg>
