<svg width="21" height="20" viewBox="0 0 21 20" fill="none" xmlns="http://www.w3.org/2000/svg">
<path d="M10.4408 18.4596C15.0431 18.4596 18.7741 14.7287 18.7741 10.1263C18.7741 5.52393 15.0431 1.79297 10.4408 1.79297C5.83838 1.79297 2.10742 5.52393 2.10742 10.1263C2.10742 14.7287 5.83838 18.4596 10.4408 18.4596Z" fill="#B0ABB3"/>
<path d="M9.66663 13.4596V10.1263C9.66663 9.66606 10.0397 9.29297 10.5 9.29297C10.9602 9.29297 11.3333 9.66606 11.3333 10.1263V13.4596C11.3333 13.9199 10.9602 14.293 10.5 14.293C10.0397 14.293 9.66663 13.9199 9.66663 13.4596Z" fill="white"/>
<path d="M10.5049 5.95898C11.0545 5.95898 11.5 6.4067 11.5 6.95898C11.5 7.51127 11.0545 7.95898 10.5049 7.95898H10.4951C9.94554 7.95898 9.5 7.51127 9.5 6.95898C9.5 6.4067 9.94554 5.95898 10.4951 5.95898H10.5049Z" fill="white"/>
</svg>
