<svg width="16" height="16" viewBox="0 0 16 16" fill="none" xmlns="http://www.w3.org/2000/svg">
<path fill-rule="evenodd" clip-rule="evenodd" d="M5.94849 1.3335H2.35801C1.79325 1.3335 1.33325 1.79254 1.33325 2.35921V5.94969C1.33325 6.5154 1.7923 6.97445 2.35897 6.97445H5.94944C6.51516 6.97445 6.9742 6.5154 6.9742 5.94873V2.35826C6.9742 1.7935 6.51516 1.3335 5.94849 1.3335ZM13.6409 9.02588H10.0504C9.48468 9.02588 9.02563 9.48493 9.02563 10.0516V13.6421C9.02563 14.2078 9.48468 14.6668 10.0513 14.6668H13.6418C14.2075 14.6668 14.6666 14.2078 14.6666 13.6411V10.0506C14.6666 9.48493 14.2075 9.02588 13.6409 9.02588ZM2.35897 9.02588H5.94944C6.51516 9.02588 6.9742 9.48493 6.9742 10.0516V13.6421C6.9742 14.2078 6.51516 14.6668 5.94849 14.6668H2.35801C2.08614 14.6666 1.82549 14.5584 1.63334 14.3661C1.44119 14.1737 1.33325 13.913 1.33325 13.6411V10.0506C1.33325 9.48493 1.7923 9.02588 2.35897 9.02588Z" fill="#DFB8FF"/>
<path fill-rule="evenodd" clip-rule="evenodd" d="M12.2951 2.04778C12.2951 1.85834 12.2198 1.67666 12.0859 1.54271C11.9519 1.40875 11.7702 1.3335 11.5808 1.3335C11.3914 1.3335 11.2097 1.40875 11.0757 1.54271C10.9418 1.67666 10.8665 1.85834 10.8665 2.04778V3.69826H9.21795C9.12415 3.69826 9.03126 3.71673 8.9446 3.75263C8.85794 3.78853 8.7792 3.84114 8.71287 3.90747C8.64654 3.97379 8.59393 4.05254 8.55803 4.1392C8.52214 4.22586 8.50366 4.31874 8.50366 4.41254C8.50366 4.50634 8.52214 4.59923 8.55803 4.68589C8.59393 4.77255 8.64654 4.85129 8.71287 4.91762C8.7792 4.98395 8.85794 5.03656 8.9446 5.07246C9.03126 5.10835 9.12415 5.12683 9.21795 5.12683H10.8684V6.77635C10.8684 6.96579 10.9437 7.14747 11.0776 7.28143C11.2116 7.41538 11.3933 7.49064 11.5827 7.49064C11.7722 7.49064 11.9538 7.41538 12.0878 7.28143C12.2217 7.14747 12.297 6.96579 12.297 6.77635V5.12683H13.9465C14.0403 5.12683 14.1332 5.10835 14.2199 5.07246C14.3065 5.03656 14.3853 4.98395 14.4516 4.91762C14.5179 4.85129 14.5705 4.77255 14.6064 4.68589C14.6423 4.59923 14.6608 4.50634 14.6608 4.41254C14.6608 4.31874 14.6423 4.22586 14.6064 4.1392C14.5705 4.05254 14.5179 3.97379 14.4516 3.90747C14.3853 3.84114 14.3065 3.78853 14.2199 3.75263C14.1332 3.71673 14.0403 3.69826 13.9465 3.69826H12.297V2.04778H12.2951Z" fill="#DFB8FF"/>
</svg>
