<svg width="33" height="32" viewBox="0 0 33 32" fill="none" xmlns="http://www.w3.org/2000/svg">
<path fill-rule="evenodd" clip-rule="evenodd" d="M12.3972 2.66699H5.21627C4.08675 2.66699 3.16675 3.58509 3.16675 4.71842V11.8994C3.16675 13.0308 4.08484 13.9489 5.21818 13.9489H12.3991C13.5306 13.9489 14.4487 13.0308 14.4487 11.8975V4.71652C14.4487 3.58699 13.5306 2.66699 12.3972 2.66699ZM27.782 18.0518H20.601C19.4696 18.0518 18.5515 18.9699 18.5515 20.1032V27.2841C18.5515 28.4156 19.4696 29.3337 20.6029 29.3337H27.7839C28.9153 29.3337 29.8334 28.4156 29.8334 27.2822V20.1013C29.8334 18.9699 28.9153 18.0518 27.782 18.0518ZM5.21818 18.0518H12.3991C13.5306 18.0518 14.4487 18.9699 14.4487 20.1032V27.2841C14.4487 28.4156 13.5306 29.3337 12.3972 29.3337H5.21627C4.67253 29.3332 4.15123 29.1168 3.76692 28.7321C3.38262 28.3475 3.16675 27.826 3.16675 27.2822V20.1013C3.16675 18.9699 4.08484 18.0518 5.21818 18.0518Z" fill="#DFB8FF"/>
<path fill-rule="evenodd" clip-rule="evenodd" d="M25.0904 4.09556C25.0904 3.71668 24.9399 3.35332 24.672 3.08541C24.4041 2.8175 24.0407 2.66699 23.6619 2.66699C23.283 2.66699 22.9196 2.8175 22.6517 3.08541C22.3838 3.35332 22.2333 3.71668 22.2333 4.09556V7.39652H18.9361C18.7485 7.39652 18.5628 7.43347 18.3894 7.50526C18.2161 7.57705 18.0586 7.68228 17.926 7.81493C17.7933 7.94759 17.6881 8.10507 17.6163 8.2784C17.5445 8.45172 17.5076 8.63748 17.5076 8.82509C17.5076 9.01269 17.5445 9.19846 17.6163 9.37178C17.6881 9.5451 17.7933 9.70258 17.926 9.83524C18.0586 9.96789 18.2161 10.0731 18.3894 10.1449C18.5628 10.2167 18.7485 10.2537 18.9361 10.2537H22.2371V13.5527C22.2371 13.9316 22.3876 14.2949 22.6555 14.5629C22.9234 14.8308 23.2868 14.9813 23.6657 14.9813C24.0445 14.9813 24.4079 14.8308 24.6758 14.5629C24.9437 14.2949 25.0942 13.9316 25.0942 13.5527V10.2537H28.3933C28.5809 10.2537 28.7667 10.2167 28.94 10.1449C29.1133 10.0731 29.2708 9.96789 29.4034 9.83524C29.5361 9.70258 29.6413 9.5451 29.7131 9.37178C29.7849 9.19846 29.8219 9.01269 29.8219 8.82509C29.8219 8.63748 29.7849 8.45172 29.7131 8.2784C29.6413 8.10507 29.5361 7.94759 29.4034 7.81493C29.2708 7.68228 29.1133 7.57705 28.94 7.50526C28.7667 7.43347 28.5809 7.39652 28.3933 7.39652H25.0942V4.09556H25.0904Z" fill="#B961FF"/>
</svg>
