<svg width="25" height="24" viewBox="0 0 25 24" fill="none" xmlns="http://www.w3.org/2000/svg">
<g clip-path="url(#clip0_41_1049)">
<path fill-rule="evenodd" clip-rule="evenodd" d="M6.30094 2.42071C6.92765 2.08687 7.16506 1.30818 6.8312 0.681475C6.49734 0.0547724 5.71866 -0.18263 5.09195 0.151222C3.32281 1.09366 1.74416 2.35659 0.43636 3.87571C-0.0269184 4.41384 0.0337632 5.22564 0.571897 5.68891C1.11003 6.15219 1.92183 6.09151 2.38511 5.55338C3.4851 4.27565 4.81292 3.21341 6.30094 2.42071ZM12.125 24.0002C17.8056 24.0002 22.4107 19.3953 22.4107 13.7145C22.4107 8.0339 17.8056 3.42883 12.125 3.42883C6.44437 3.42883 1.8393 8.0339 1.8393 13.7145C1.8393 19.3953 6.44437 24.0002 12.125 24.0002ZM17.4189 0.681475C17.7527 0.0547724 18.5315 -0.18263 19.158 0.151222C20.9272 1.09366 22.5059 2.35659 23.8137 3.87571C24.2769 4.41384 24.2162 5.22564 23.6781 5.68891C23.14 6.15219 22.3283 6.09151 21.8649 5.55338C20.765 4.27565 19.4371 3.21341 17.9491 2.42071C17.3224 2.08687 17.085 1.30818 17.4189 0.681475ZM13.1964 8.57143C13.1964 7.97969 12.7167 7.5 12.125 7.5C11.5333 7.5 11.0536 7.97969 11.0536 8.57143V13.7143C11.0536 14.306 11.5333 14.7857 12.125 14.7857H16.4107C17.0025 14.7857 17.4821 14.306 17.4821 13.7143C17.4821 13.1225 17.0025 12.6429 16.4107 12.6429H13.1964V8.57143Z" fill="#B0ABB3"/>
</g>
<defs>
<clipPath id="clip0_41_1049">
<rect width="24" height="24" fill="white" transform="translate(0.125)"/>
</clipPath>
</defs>
</svg>
