<svg width="29" height="28" viewBox="0 0 29 28" fill="none" xmlns="http://www.w3.org/2000/svg">
<path fill-rule="evenodd" clip-rule="evenodd" d="M8.46277 4.68684C9.07207 4.36228 9.30288 3.60522 8.9783 2.99592C8.65372 2.38663 7.89666 2.15582 7.28736 2.4804C5.56736 3.39666 4.03256 4.62451 2.76109 6.10143C2.31068 6.62461 2.36967 7.41386 2.89286 7.86427C3.41604 8.31468 4.20529 8.25568 4.65571 7.7325C5.72514 6.49026 7.01608 5.45753 8.46277 4.68684ZM14.1251 25.6669C19.6479 25.6669 24.1251 21.1899 24.1251 15.667C24.1251 10.1441 19.6479 5.66696 14.1251 5.66696C8.60222 5.66696 4.12506 10.1441 4.12506 15.667C4.12506 21.1899 8.60222 25.6669 14.1251 25.6669ZM19.2719 2.99592C19.5964 2.38663 20.3536 2.15582 20.9627 2.4804C22.6827 3.39666 24.2176 4.62451 25.4891 6.10143C25.9394 6.62461 25.8804 7.41386 25.3572 7.86427C24.8341 8.31468 24.0449 8.25568 23.5944 7.7325C22.5251 6.49026 21.2341 5.45753 19.7874 4.68684C19.1781 4.36228 18.9473 3.60522 19.2719 2.99592ZM15.1667 10.6667C15.1667 10.0914 14.7004 9.62505 14.1251 9.62505C13.5498 9.62505 13.0834 10.0914 13.0834 10.6667V15.6667C13.0834 16.242 13.5498 16.7084 14.1251 16.7084H18.2917C18.867 16.7084 19.3334 16.242 19.3334 15.6667C19.3334 15.0914 18.867 14.6251 18.2917 14.6251H15.1667V10.6667Z" fill="#B0ABB3"/>
</svg>
